<?xml version="1.0" encoding="UTF-8"?>
<svg xmlns="http://www.w3.org/2000/svg" xmlns:xlink="http://www.w3.org/1999/xlink" width="23px" height="25px" viewBox="0 0 23 25" version="1.1">
    
    <title>10 -Linkedin- (Outline)</title>
    <desc>Created with Sketch.</desc>
    <defs/>
    <g id="Page-1" stroke="none" stroke-width="1" fill="none" fill-rule="evenodd">
        <g id="10--Linkedin--(Outline)" fill="#000000">
            <path d="M3.0015,4.0085 C3.2795,4.0365 3.5355,3.9135 3.7225,3.7315 C3.9175,3.5415 4.0245,3.2855 4.0255,3.0115 C4.0255,2.7465 3.9215,2.4955 3.7315,2.3045 C3.5425,2.1135 3.2955,2.0085 3.0345,2.0085 L3.0335,2.0085 C2.7665,2.0085 2.5125,2.1135 2.3205,2.3035 C2.1305,2.4925 2.0255,2.7425 2.0255,3.0065 C2.0255,3.2815 2.1345,3.5395 2.3305,3.7315 C2.5155,3.9125 2.7885,4.0345 3.0015,4.0085 M3.0645,6.0085 C3.0225,6.0095 2.9825,6.0095 2.9445,6.0085 C2.2295,6.0085 1.4825,5.7015 0.9315,5.1605 C0.3475,4.5885 0.0255,3.8235 0.0255,3.0065 C0.0255,2.2055 0.3405,1.4525 0.9115,0.8845 C1.4805,0.3205 2.2335,0.0085 3.0335,0.0085 L3.0365,0.0085 C3.8325,0.0095 4.5835,0.3235 5.1495,0.8945 C5.7165,1.4645 6.0265,2.2175 6.0255,3.0155 C6.0235,3.8335 5.7015,4.5955 5.1175,5.1645 C4.5645,5.7035 3.8195,6.0085 3.0645,6.0085" id="Fill-51"/>
            <path d="M2.026,22.009 L4.026,22.009 L4.026,9.009 L2.026,9.009 L2.026,22.009 Z M5.026,24.009 L1.026,24.009 C0.473,24.009 0.026,23.561 0.026,23.009 L0.026,8.009 C0.026,7.457 0.473,7.009 1.026,7.009 L5.026,7.009 C5.579,7.009 6.026,7.457 6.026,8.009 L6.026,23.009 C6.026,23.561 5.579,24.009 5.026,24.009 L5.026,24.009 Z" id="Fill-53"/>
            <path d="M18.0308,22.009 L20.0308,22.009 L20.0308,12.664 C20.0308,10.333 18.3618,8.575 16.1488,8.575 L15.3498,8.575 C14.3768,8.575 13.3998,8.97 12.7378,9.633 C12.4518,9.918 12.0218,10.004 11.6478,9.849 C11.2738,9.694 11.0308,9.329 11.0308,8.925 L11.0308,8.006 L9.0178,8.008 L9.0178,8.018 L9.0258,8.018 L9.0308,22.007 L11.0308,22.008 L11.0308,14.509 C11.0308,12.579 12.6008,11.009 14.5308,11.009 C16.4608,11.009 18.0308,12.579 18.0308,14.509 L18.0308,22.009 Z M12.0308,24.009 L12.0298,24.009 L8.0298,24.006 C7.4778,24.006 7.0308,23.558 7.0308,23.007 L7.0258,8.019 C7.0258,7.998 7.0268,7.977 7.0278,7.956 C7.0288,7.882 7.0298,7.662 7.0308,7.007 C7.0318,6.456 7.4778,6.009 8.0298,6.009 L12.0298,6.004 L12.0308,6.004 C12.2958,6.004 12.5508,6.109 12.7378,6.297 C12.9258,6.484 13.0308,6.738 13.0308,7.004 L13.0308,7.06 C13.7538,6.744 14.5458,6.575 15.3498,6.575 L16.1488,6.575 C19.4468,6.575 22.0308,9.25 22.0308,12.664 L22.0308,23.009 C22.0308,23.561 21.5838,24.009 21.0308,24.009 L17.0308,24.009 C16.4778,24.009 16.0308,23.561 16.0308,23.009 L16.0308,14.509 C16.0308,13.682 15.3578,13.009 14.5308,13.009 C13.7038,13.009 13.0308,13.682 13.0308,14.509 L13.0308,23.009 C13.0308,23.274 12.9258,23.529 12.7378,23.717 C12.5508,23.904 12.2958,24.009 12.0308,24.009 L12.0308,24.009 Z" id="Fill-55"/>
        </g>
    </g>

	<metadata>
		<rdf:RDF xmlns:rdf="http://www.w3.org/1999/02/22-rdf-syntax-ns#" xmlns:rdfs="http://www.w3.org/2000/01/rdf-schema#" xmlns:dc="http://purl.org/dc/elements/1.1/">
			<rdf:Description about="https://iconscout.com/legal#licenses" dc:title="10 -Linkedin- (Outline)" dc:description="10 -Linkedin- (Outline)" dc:publisher="Iconscout" dc:date="2017-07-09" dc:format="image/svg+xml" dc:language="en">
				<dc:creator>
					<rdf:Bag>
						<rdf:li>Icons24px .</rdf:li>
					</rdf:Bag>
				</dc:creator>
			</rdf:Description>
		</rdf:RDF>
    </metadata></svg>
